<?xml version="1.0" standalone="no"?>
<!DOCTYPE svg PUBLIC "-//W3C//DTD SVG 20010904//EN"
 "http://www.w3.org/TR/2001/REC-SVG-20010904/DTD/svg10.dtd">
<svg version="1.0" xmlns="http://www.w3.org/2000/svg"
 width="640.000000pt" height="640.000000pt" viewBox="0 0 640.000000 640.000000"
 preserveAspectRatio="xMidYMid meet">
<metadata>
Created by potrace 1.16, written by Peter Selinger 2001-2019
</metadata>
<g transform="translate(0.000000,640.000000) scale(0.100000,-0.100000)"
fill="#000000" stroke="none">
<path d="M3005 6038 c-22 -5 -64 -7 -94 -4 -41 4 -62 0 -90 -15 -19 -10 -52
-19 -72 -19 -20 0 -58 -7 -85 -15 -29 -9 -89 -15 -146 -15 -108 0 -123 -6
-343 -126 -112 -61 -145 -84 -215 -150 -30 -28 -66 -54 -80 -57 -28 -8 -65
-34 -124 -91 -27 -25 -62 -46 -101 -58 -33 -11 -68 -29 -77 -41 -19 -24 -24
-57 -9 -57 5 0 12 -9 16 -19 5 -16 16 -22 68 -36 4 -2 10 -3 14 -4 3 0 -3 -11
-15 -24 -15 -15 -18 -27 -12 -37 6 -10 1 -25 -18 -50 -14 -19 -30 -36 -34 -38
-4 -2 -8 -21 -8 -42 0 -28 -5 -42 -19 -49 -14 -8 -20 -26 -25 -73 -14 -136
-17 -306 -5 -388 6 -47 11 -105 10 -129 -2 -33 5 -53 25 -82 23 -34 25 -43 16
-65 -21 -46 -11 -132 14 -122 5 1 10 -7 12 -19 2 -13 -1 -23 -7 -23 -6 0 -12
6 -13 13 -1 11 -5 -37 -23 -278 -6 -74 -4 -121 8 -180 13 -71 13 -88 1 -135
-17 -66 -6 -109 36 -142 26 -21 30 -33 40 -113 12 -86 35 -173 66 -242 8 -17
14 -39 14 -50 1 -25 44 -111 75 -148 77 -92 98 -115 106 -115 5 0 28 -21 51
-47 67 -73 108 -111 166 -150 87 -58 87 -69 6 -159 -130 -144 -271 -327 -267
-344 1 -5 -4 -14 -12 -20 -8 -7 -15 -20 -15 -30 0 -10 -7 -23 -15 -30 -8 -7
-15 -24 -15 -39 0 -21 -2 -23 -11 -11 -9 12 -10 10 -6 -8 4 -17 2 -22 -8 -18
-9 3 -12 0 -9 -8 3 -7 -2 -18 -10 -25 -8 -7 -13 -18 -10 -26 3 -7 0 -16 -6
-20 -9 -6 -9 -10 1 -16 11 -7 10 -9 -3 -9 -11 0 -15 -5 -12 -15 4 -8 1 -15 -5
-15 -6 0 -8 -7 -4 -17 5 -12 2 -15 -10 -10 -9 3 -17 2 -17 -3 0 -6 6 -10 13
-10 6 -1 1 -7 -13 -15 -15 -9 -19 -14 -10 -15 12 0 12 -2 2 -9 -7 -4 -12 -12
-11 -17 4 -21 -2 -44 -11 -44 -5 0 -7 8 -4 18 5 14 4 14 -6 -2 -10 -15 -9 -20
1 -27 11 -7 6 -16 -20 -39 -41 -36 -44 -37 -29 -5 6 14 18 25 27 25 13 0 13 2
3 9 -11 7 -10 16 7 49 12 23 21 46 21 52 0 6 12 32 27 58 15 25 28 53 29 60 2
8 10 22 20 33 9 10 14 19 9 19 -34 0 -522 -443 -574 -521 -64 -96 -118 -251
-166 -475 -10 -47 16 -83 128 -177 62 -52 150 -121 197 -154 133 -96 321 -209
306 -184 -10 15 15 104 33 119 9 8 10 11 4 7 -20 -10 -15 13 5 25 16 11 16 11
0 6 -23 -7 -23 10 -2 22 11 6 13 11 5 16 -15 10 14 52 42 61 20 6 20 8 4 12
-11 3 -16 11 -13 19 3 8 1 14 -5 14 -6 0 -8 4 -5 9 3 4 28 11 55 15 28 4 53
11 56 16 3 6 13 10 22 10 26 0 8 -11 -49 -31 -50 -17 -51 -18 -19 -18 29 -1
32 -3 21 -16 -15 -17 -7 -19 21 -5 10 6 19 8 19 5 0 -13 -29 -35 -47 -35 -10
0 -25 -5 -33 -11 -15 -11 -3 -9 65 7 15 4 25 2 25 -5 0 -6 -8 -11 -17 -11 -12
0 -14 -3 -7 -8 7 -4 13 -15 15 -24 3 -13 8 -15 19 -8 12 8 13 11 1 19 -8 5
-10 11 -3 15 10 6 21 56 25 119 1 15 9 33 17 38 12 9 11 10 -4 5 -16 -5 -17
-4 -7 8 7 8 12 25 11 38 -4 39 -1 48 16 48 12 0 14 -3 6 -13 -8 -9 -1 -11 34
-8 41 3 61 -11 32 -22 -7 -3 21 -6 63 -6 42 -1 103 -4 136 -7 l60 -7 -3 -63
c-2 -51 1 -66 14 -74 10 -5 12 -10 5 -10 -7 0 -13 -4 -13 -10 0 -6 9 -5 24 1
14 7 22 17 19 25 -3 8 0 14 6 14 7 0 16 10 21 23 6 16 9 4 9 -48 1 -43 -4 -76
-11 -83 -9 -9 -9 -12 0 -12 9 0 10 -5 2 -19 -5 -11 -11 -33 -12 -48 -1 -15 -4
-32 -7 -38 -3 -5 -6 -14 -6 -20 -2 -32 -18 -96 -25 -100 -5 -3 -7 -12 -3 -20
3 -8 1 -15 -4 -15 -5 0 -9 -8 -10 -17 -1 -10 -4 -31 -7 -48 -4 -16 -9 -43 -12
-60 -4 -16 -11 -33 -17 -37 -15 -9 -8 -15 28 -23 23 -5 26 -4 15 4 -10 7 -11
11 -2 11 6 0 12 9 12 19 0 11 5 23 10 26 6 4 8 11 4 16 -3 6 2 19 12 30 16 18
16 19 -2 19 -17 1 -17 2 3 13 16 9 20 16 13 27 -8 12 -10 13 -10 1 0 -8 -3
-11 -7 -7 -5 4 1 14 11 22 11 8 14 14 8 14 -12 0 -8 41 7 65 3 6 4 18 3 28 -2
9 3 17 10 17 9 0 9 3 -2 10 -13 8 -12 11 4 23 12 9 19 26 19 46 0 17 4 31 9
31 4 0 8 5 8 11 0 5 -4 7 -10 4 -16 -10 -12 7 7 27 9 11 11 18 5 18 -7 0 -12
5 -12 10 0 6 7 10 15 10 8 0 15 5 15 10 0 6 -4 10 -10 10 -5 0 -10 5 -10 10 0
6 7 10 15 10 8 0 15 5 15 10 0 6 -7 10 -15 10 -8 0 -15 5 -15 10 0 6 22 10 49
10 34 0 51 4 55 15 3 10 19 15 47 15 74 0 35 10 -57 15 l-89 4 -14 46 c-12 37
-12 50 -3 63 7 9 15 25 18 34 4 10 14 20 24 23 10 3 21 12 24 20 4 11 -2 15
-24 15 -23 0 -30 -4 -30 -20 0 -23 -10 -26 -28 -8 -15 15 -16 84 -2 93 6 4 8
10 5 15 -3 5 5 12 17 16 26 8 32 12 111 89 43 43 63 56 78 52 15 -4 19 -2 15
9 -3 9 4 16 22 20 15 4 33 11 40 17 7 6 37 10 65 9 29 0 46 1 40 4 -18 8 -16
25 1 18 8 -3 34 14 60 40 25 25 55 46 65 46 10 0 21 7 25 15 6 16 36 21 36 6
0 -11 -51 -64 -83 -86 -12 -8 -16 -15 -9 -15 7 0 24 11 38 25 14 14 29 25 35
25 6 0 7 5 4 10 -3 6 -2 10 4 10 5 0 11 -3 14 -7 2 -5 2 -2 1 5 -2 6 3 12 11
12 8 0 15 5 15 11 0 5 5 7 10 4 6 -3 10 1 10 9 0 38 101 20 117 -20 3 -8 10
-13 17 -12 16 2 86 -34 86 -45 0 -5 6 -7 14 -4 16 6 36 -11 36 -31 0 -9 -6
-12 -16 -8 -9 4 -13 2 -8 -5 8 -14 -16 -60 -28 -53 -7 5 -12 -10 -9 -28 1 -7
-39 -13 -61 -9 -5 0 -8 -5 -8 -13 0 -8 -3 -22 -7 -32 -4 -11 -3 -15 4 -11 13
8 28 -43 16 -52 -5 -3 -37 -62 -71 -131 -61 -123 -100 -196 -165 -308 -18 -32
-41 -74 -52 -95 -11 -21 -28 -47 -37 -57 -10 -11 -18 -22 -18 -26 0 -4 -31
-57 -69 -118 -37 -61 -76 -125 -86 -143 -10 -18 -23 -29 -28 -26 -6 3 -7 1 -3
-5 4 -6 -5 -30 -19 -53 -15 -22 -25 -42 -23 -44 11 -11 253 -46 378 -55 541
-38 1002 30 1460 216 434 177 769 402 1097 735 237 241 411 482 563 780 87
170 164 359 153 370 -5 5 -56 18 -113 28 -58 11 -179 36 -269 56 -90 20 -252
54 -360 76 -217 44 -436 100 -635 160 -242 74 -471 151 -504 171 -18 11 -55
54 -83 95 -28 41 -76 103 -108 137 -31 35 -71 91 -89 124 -18 33 -49 74 -69
90 l-37 29 3 89 c2 49 6 166 9 259 l7 170 70 0 c56 0 76 4 101 22 38 27 48 53
63 158 7 44 17 107 22 140 24 141 -28 469 -91 580 l-28 50 19 105 c16 84 19
134 16 250 -4 138 -6 148 -36 210 -25 52 -30 73 -25 105 9 60 -27 144 -90 213
-29 31 -74 89 -99 127 -25 39 -76 96 -112 128 -36 32 -72 71 -80 87 -9 17 -28
33 -49 40 -19 6 -45 19 -58 29 -13 10 -43 23 -68 29 -183 44 -266 72 -291 100
-57 64 -136 90 -214 70z m-264 -1223 c8 -6 39 -12 69 -14 43 -2 66 -10 105
-37 28 -19 56 -34 62 -34 24 0 91 -84 74 -94 -14 -9 -169 -31 -190 -27 -7 1
-24 -8 -38 -21 -24 -22 -25 -22 -38 -5 -10 14 -20 17 -37 11 -13 -4 -25 -5
-27 -3 -1 2 -13 -14 -25 -37 -11 -22 -31 -53 -44 -69 -21 -26 -25 -28 -81 -22
-71 8 -108 23 -114 48 -3 10 -13 22 -24 26 -10 3 -26 15 -36 25 -12 13 -26 16
-43 12 -20 -5 -26 -2 -31 15 -4 15 -13 21 -34 21 -15 0 -31 -5 -34 -10 -4 -7
-12 -7 -24 0 -10 5 -21 7 -24 3 -4 -3 -20 0 -37 7 -23 10 -33 10 -44 1 -8 -7
-40 -15 -70 -18 -50 -5 -56 -4 -57 13 -1 17 -2 17 -6 2 -4 -17 -34 -26 -32
-10 4 23 -4 21 -33 -8 -65 -63 -78 -61 -56 11 8 27 17 39 30 39 10 0 18 4 18
9 0 5 15 18 33 29 26 16 41 19 80 13 26 -4 47 -4 47 1 0 4 6 8 13 8 7 0 19 8
26 19 10 13 27 19 58 19 25 1 50 6 57 11 6 5 29 13 51 17 22 4 45 13 50 20 6
7 50 17 100 24 49 6 91 12 92 13 7 8 203 0 214 -8z m998 -514 c7 -5 11 -13 7
-19 -3 -5 0 -15 8 -21 8 -7 12 -21 9 -31 -3 -11 0 -27 7 -35 8 -9 13 -44 13
-83 1 -52 -5 -77 -23 -112 -40 -76 -47 -94 -55 -127 -3 -18 -10 -33 -14 -33
-4 0 -13 -18 -20 -40 -7 -25 -23 -48 -39 -58 -15 -9 -27 -26 -27 -37 0 -11
-15 -29 -35 -42 -19 -12 -40 -27 -47 -33 -7 -5 -22 -10 -35 -10 -26 0 -50 -13
-48 -26 0 -5 -7 -11 -17 -13 -10 -2 -22 -9 -26 -17 -4 -8 -15 -14 -24 -14 -10
0 -14 -6 -10 -19 3 -14 0 -17 -14 -14 -15 4 -18 -2 -21 -38 -2 -32 -8 -45 -20
-47 -11 -2 -18 3 -18 12 0 27 -20 28 -32 1 -12 -26 -2 -48 22 -51 6 -1 12 -2
15 -3 3 0 -6 -12 -20 -26 -31 -31 -32 -71 -4 -94 20 -16 21 -18 4 -35 -17 -16
-19 -16 -46 16 -31 37 -36 62 -15 83 17 17 15 61 -3 57 -10 -2 -12 8 -9 37 2
22 1 39 -2 38 -14 -4 -110 79 -110 95 0 22 -28 24 -36 3 -8 -19 -51 -19 -84 0
-14 8 -44 14 -68 15 -28 0 -45 5 -48 15 -4 8 -12 15 -18 15 -7 0 -17 5 -23 11
-18 18 5 59 32 59 48 0 92 63 86 123 -3 21 -1 21 167 22 94 0 135 4 140 12 5
7 23 16 42 19 26 6 31 4 25 -6 -5 -9 -4 -11 4 -6 6 4 9 11 6 16 -3 5 7 16 22
24 32 16 113 99 113 115 0 6 4 11 9 11 5 0 15 17 21 38 7 20 16 41 21 47 5 5
9 21 9 36 0 25 3 27 34 24 56 -5 63 10 17 35 -32 18 -38 26 -30 37 6 7 18 13
25 13 17 0 51 18 79 42 17 14 40 22 80 26 6 1 16 -2 24 -7z m-1131 -154 c2
-18 13 -32 33 -42 44 -23 62 -57 54 -103 -5 -34 -3 -40 19 -52 15 -7 26 -17
26 -22 0 -4 6 -8 14 -8 7 0 16 -10 19 -22 5 -17 9 -19 21 -9 11 9 19 7 40 -12
32 -30 33 -50 4 -65 -25 -13 -83 -3 -83 14 -1 46 -67 46 -121 1 -47 -40 -71
-50 -78 -34 -5 9 -7 9 -12 0 -8 -19 -45 -17 -38 2 4 9 0 15 -7 15 -14 1 -79
55 -79 66 0 3 13 24 28 47 18 27 28 58 30 86 2 28 9 49 20 57 9 8 13 14 9 14
-18 0 15 40 34 40 16 0 19 4 14 20 -9 27 2 42 28 38 16 -2 23 -11 25 -31z
m854 -27 c-1 -16 -3 -38 -3 -47 -3 -26 -51 -94 -97 -135 -61 -55 -138 -79
-252 -79 -147 0 -232 35 -293 119 -39 55 -73 129 -64 139 4 3 7 1 7 -6 0 -7
16 -37 36 -67 29 -44 39 -52 50 -43 17 14 19 -2 2 -19 -7 -7 -9 -12 -6 -12 16
0 38 34 34 53 -1 12 -1 17 1 11 3 -8 16 -5 41 8 37 18 37 18 54 -2 9 -11 26
-20 37 -20 12 0 21 -4 21 -9 0 -17 64 -9 84 11 21 19 41 25 31 8 -4 -6 5 -10
20 -10 29 0 77 28 70 40 -8 12 39 -2 47 -14 4 -6 10 -7 14 -3 4 4 -3 18 -16
32 -13 14 -18 25 -12 25 7 0 12 -5 12 -11 0 -6 7 -3 16 5 19 20 43 21 50 2 5
-12 9 -11 23 3 10 10 32 24 50 32 21 9 29 19 26 29 -5 12 -4 12 6 3 7 -7 12
-26 11 -43z m-1742 -215 c10 0 14 -8 13 -22 -2 -17 2 -23 16 -23 11 0 21 6 24
13 6 16 31 -14 55 -65 9 -21 23 -40 30 -43 7 -2 11 -1 8 4 -3 5 24 7 61 5 66
-4 101 -14 49 -14 -18 0 -26 -4 -23 -12 5 -16 125 -13 252 6 50 7 91 13 92 12
1 -1 3 -24 4 -51 3 -51 21 -100 32 -88 4 3 16 -2 28 -13 19 -17 19 -19 3 -31
-9 -7 -28 -10 -41 -7 -16 5 -23 2 -23 -9 0 -23 -23 -27 -45 -7 -11 10 -29 20
-40 21 -23 4 -95 -35 -95 -50 0 -6 -15 -14 -32 -19 -21 -5 -34 -16 -36 -28 -6
-32 -18 -36 -53 -19 -42 22 -73 52 -57 57 13 5 -126 145 -153 153 -10 4 -19
16 -20 28 -1 20 -2 20 -9 -3 -7 -23 -8 -21 -9 12 -1 37 -29 98 -45 98 -4 0 -6
-10 -3 -22 3 -13 7 -59 8 -103 1 -44 6 -83 11 -86 7 -4 6 -9 0 -13 -6 -4 -20
18 -33 51 -20 51 -23 76 -23 208 -1 83 2 173 6 200 4 28 8 57 9 65 1 8 7 -34
13 -95 9 -86 14 -110 26 -110z m293 24 c9 -6 22 -7 28 -3 6 3 21 2 32 -4 12
-6 37 -15 55 -21 26 -8 32 -7 32 5 0 16 17 19 22 4 2 -7 23 0 51 15 49 26 67
26 67 -1 0 -8 4 -14 9 -14 20 0 -3 -41 -33 -60 -69 -42 -238 -71 -322 -56 -35
7 -113 72 -115 97 0 11 -2 11 -6 1 -4 -10 -9 -9 -24 4 -10 9 -19 23 -19 31 0
16 1 16 36 3 22 -9 29 -8 36 4 7 12 22 14 71 10 34 -3 70 -10 80 -15z m1076
-772 c13 -20 30 -37 37 -37 7 0 13 -10 12 -22 0 -44 -9 -68 -23 -68 -7 0 -21
-10 -29 -22 -12 -16 -18 -19 -29 -10 -7 6 -32 14 -56 18 -28 4 -40 11 -37 19
3 8 -2 11 -15 8 -15 -4 -18 -2 -13 11 4 12 -4 26 -25 45 -17 15 -31 34 -31 42
0 8 -5 20 -11 26 -22 22 16 45 66 41 24 -3 49 -1 56 3 22 13 73 -15 98 -54z
m-229 -67 c6 -11 8 -31 4 -45 -6 -23 -4 -25 25 -19 23 5 32 2 37 -10 5 -12 20
-16 61 -16 33 0 52 -4 48 -10 -3 -5 -19 -10 -34 -10 -18 0 -34 -8 -43 -22 -14
-21 -14 -21 -43 -2 -34 22 -55 26 -49 9 5 -12 -59 -58 -81 -59 -5 -1 -11 -10
-13 -21 -4 -25 -73 -60 -83 -43 -6 9 -12 8 -25 -3 -9 -8 -40 -19 -68 -24 -58
-12 -100 2 -111 35 -4 11 -11 20 -16 20 -16 0 -10 22 13 41 11 11 26 19 33 19
6 0 16 5 23 12 7 7 40 13 74 14 52 2 65 6 81 25 10 13 25 24 34 25 8 2 24 12
34 23 11 11 31 24 45 27 17 4 23 11 20 21 -13 33 17 45 34 13z m955 -332 c-1
-36 -5 -43 -26 -48 -23 -6 -23 -6 6 -12 41 -8 48 -2 41 41 -3 20 -3 30 0 23 3
-6 11 -9 17 -5 7 4 8 0 4 -11 -4 -10 -7 -27 -7 -38 0 -11 -8 -22 -19 -25 -12
-3 -17 -11 -14 -19 3 -10 -2 -14 -18 -14 -19 0 -21 -2 -9 -10 12 -8 11 -10 -7
-10 -13 0 -22 5 -20 13 1 7 -11 13 -33 14 -25 1 -28 0 -10 -4 23 -5 24 -6 5
-14 -19 -7 -19 -8 3 -8 12 -1 22 -7 22 -15 0 -19 17 -29 32 -20 8 5 6 10 -8
15 -18 7 -18 8 2 8 14 1 24 -7 27 -19 4 -15 0 -20 -16 -21 -12 0 -16 -3 -9 -6
10 -4 10 -8 1 -19 -6 -8 -9 -14 -5 -14 4 0 -1 -11 -10 -25 -13 -20 -13 -25 -3
-25 11 0 11 -2 -1 -10 -8 -5 -11 -10 -7 -10 16 0 -14 -40 -31 -41 -14 0 -14
-2 3 -9 11 -5 15 -9 8 -9 -7 -1 -10 -7 -7 -15 3 -8 -3 -23 -13 -33 -10 -10
-18 -25 -18 -33 1 -8 -7 -29 -16 -47 -10 -17 -15 -34 -11 -38 3 -3 0 -10 -7
-14 -7 -5 -15 -21 -16 -37 -5 -41 -16 -74 -25 -74 -6 0 -19 -26 -24 -52 0 -3
-4 -10 -8 -14 -5 -4 -8 -18 -8 -30 0 -12 -7 -30 -16 -38 -8 -9 -18 -32 -21
-51 -3 -19 -10 -35 -15 -35 -5 0 -6 -5 -3 -10 4 -6 2 -17 -4 -24 -6 -7 -12
-26 -13 -42 -1 -16 -7 -32 -13 -36 -6 -5 -6 -8 3 -8 6 0 12 -8 12 -17 0 -14
-2 -15 -9 -4 -7 11 -11 9 -20 -8 -7 -12 -9 -25 -6 -30 6 -11 -47 -110 -127
-239 -32 -51 -58 -97 -58 -103 0 -13 -9 -11 -38 10 -15 10 -44 24 -64 32 -22
7 -38 20 -38 29 0 13 -1 13 -10 0 -6 -10 -10 -11 -10 -2 0 6 -8 12 -17 12 -14
0 -15 2 -4 9 11 7 9 11 -9 21 -12 6 -24 9 -27 6 -3 -3 -12 2 -20 12 -9 10 -11
11 -7 2 4 -8 -5 -4 -20 10 -15 14 -38 34 -50 45 -12 11 -27 21 -33 22 -6 1
-28 14 -49 28 -39 27 -178 73 -230 77 -35 2 -84 -25 -84 -47 0 -9 10 -15 25
-15 14 0 25 -4 25 -10 0 -5 -9 -10 -21 -10 -11 0 -17 -4 -14 -10 3 -5 1 -10
-5 -10 -7 0 -14 9 -17 20 -6 23 -16 25 -44 10 -16 -9 -17 -14 -8 -31 8 -15 8
-24 0 -32 -7 -7 -12 -5 -17 6 -7 19 -24 23 -24 7 0 -6 -14 -25 -32 -42 -48
-47 -64 -85 -61 -148 2 -31 -4 -76 -13 -103 -9 -27 -12 -52 -8 -57 11 -10 74
-1 74 11 0 5 4 9 9 9 19 0 -3 -41 -25 -46 -13 -3 -21 -11 -18 -19 4 -10 -3
-11 -33 -4 -21 5 -42 9 -46 9 -5 0 -6 9 -2 20 5 16 3 19 -12 13 -15 -6 -16 -4
-5 9 10 13 9 16 -8 21 -13 3 -18 11 -14 20 3 8 -3 32 -14 54 -10 21 -18 54
-16 73 1 19 -3 38 -10 42 -7 5 -6 8 4 8 8 0 28 20 43 45 16 25 34 45 41 45 7
0 23 11 36 25 13 14 29 25 36 25 6 0 18 10 26 22 8 11 25 22 39 23 13 1 24 8
24 16 0 8 10 14 26 14 15 1 33 7 42 15 8 8 43 41 78 72 35 31 141 132 235 225
173 170 249 238 293 264 40 23 61 43 61 56 0 7 3 12 8 12 20 -3 32 3 32 17 0
10 6 14 15 10 9 -3 15 0 15 9 0 8 7 15 16 15 8 0 13 4 10 8 -8 13 37 49 54 44
9 -3 11 1 7 11 -3 9 -2 19 3 22 4 3 11 -1 13 -7 3 -7 6 -3 6 10 1 12 7 22 15
22 8 0 17 7 20 16 4 9 13 14 22 10 9 -3 12 -2 9 5 -10 14 26 51 43 44 8 -3 16
3 19 15 3 11 10 20 15 20 5 0 19 10 32 23 13 12 32 30 42 39 11 9 25 23 32 30
7 7 28 28 47 47 38 38 70 49 79 26 11 -29 21 -14 18 25 -2 22 0 40 5 40 5 0 9
-19 8 -42z m-1636 -1343 c72 -161 128 -350 136 -460 4 -44 11 -96 16 -115 5
-19 9 -43 9 -52 0 -29 -17 -20 -23 12 -8 39 -65 100 -118 127 -24 13 -38 23
-31 23 6 0 12 7 12 15 0 7 8 19 18 24 11 7 13 10 3 11 -10 0 -11 3 -2 14 9 11
9 15 0 18 -8 3 -7 9 5 20 9 9 16 23 16 30 0 10 3 9 11 -2 8 -12 9 -9 3 10 -4
14 -7 39 -7 57 0 18 -5 29 -10 26 -6 -4 -8 3 -4 16 3 15 0 24 -9 28 -8 3 -13
12 -10 19 6 15 -23 86 -37 92 -4 2 -5 8 -1 13 3 5 1 9 -4 9 -6 0 -8 9 -5 20 3
11 1 20 -5 20 -6 0 -13 -8 -15 -17 -3 -11 -6 -6 -7 12 -2 30 -2 30 -10 5 -11
-33 -12 -60 -2 -59 26 4 30 -2 17 -28 -9 -17 -12 -41 -9 -63 5 -32 3 -37 -21
-48 -16 -8 -25 -18 -22 -26 3 -8 -1 -17 -10 -20 -9 -4 -13 -9 -10 -12 3 -3 -6
-28 -19 -54 -13 -27 -24 -52 -23 -57 4 -21 -2 -34 -12 -27 -7 4 -9 0 -5 -13 4
-14 1 -19 -14 -20 -11 -1 -20 2 -20 7 0 5 -8 11 -18 14 -9 3 -23 16 -31 27
-11 19 -11 23 3 31 9 5 16 15 16 23 0 8 14 30 30 48 17 19 30 41 30 48 0 7 10
23 22 36 12 13 17 23 11 23 -6 0 -13 11 -15 25 -3 14 -2 25 2 25 4 0 10 8 13
18 13 37 85 163 93 161 5 -1 10 4 11 12 1 8 5 32 9 54 l7 40 13 -60 c8 -33 18
-69 23 -80z"/>
</g>
</svg>
